<?xml version="1.0" encoding="UTF-8"?>
<svg fill="#000000" height="800px" width="800px" version="1.1"
     xmlns="http://www.w3.org/2000/svg"
     viewBox="0 0 500 660">
<g>
  <!-- MAIN BODY - outer rectangle CW, inner CCW for cutout -->
  <path d="M80,15 h280 v530 h-280 Z
           M88,23 v514 h264 v-514 Z"/>

  <!-- Machine top edge detail -->
  <rect x="80" y="15" width="280" height="4"/>

  <!-- Upper panel horizontal divider -->
  <rect x="88" y="162" width="264" height="5"/>

  <!-- POWER SWITCH -->
  <!-- Switch housing (outer CW, inner CCW) -->
  <path d="M104,44 h36 v40 h-36 Z
           M110,50 v28 h24 v-28 Z"/>
  <!-- Switch rocker - ON position (top half) -->
  <rect x="113" y="53" width="18" height="12" rx="1"/>
  <!-- Power icon on switch face -->
  <circle cx="122" cy="58" r="3" fill="none" stroke="#ffffff" stroke-width="1"/>
  <line x1="122" y1="54.5" x2="122" y2="57" stroke="#ffffff" stroke-width="1"/>
  <!-- Power indicator light -->
  <circle cx="122" cy="72" r="3.5"/>
  <circle cx="122" cy="72" r="1.5" fill="#ffffff"/>

  <!-- STEAM/HOT WATER SWITCH -->
  <!-- Switch housing -->
  <path d="M104,96 h36 v40 h-36 Z
           M110,102 v28 h24 v-28 Z"/>
  <!-- Switch rocker - OFF position (bottom half) -->
  <rect x="113" y="118" width="18" height="9" rx="1"/>
  <!-- Steam icon (wavy lines) -->
  <path d="M117,107 q2.5,-3.5 5,0 q2.5,3.5 5,0" fill="none" stroke="#000000" stroke-width="1.8" stroke-linecap="round"/>
  <path d="M117,112 q2.5,-3.5 5,0 q2.5,3.5 5,0" fill="none" stroke="#000000" stroke-width="1.8" stroke-linecap="round"/>

  <!-- STEAM KNOB (upper right) - concentric circles -->
  <!-- Outer bezel -->
  <circle cx="308" cy="92" r="35"/>
  <circle cx="308" cy="92" r="28" fill="#ffffff"/>
  <!-- Inner raised ring -->
  <circle cx="308" cy="92" r="26"/>
  <circle cx="308" cy="92" r="19" fill="#ffffff"/>
  <!-- Rancilio crown/lotus logo (simplified) -->
  <path d="M300,88 l2.5,-7 3,6 2.5,-8 2.5,6 3,-7 2.5,7 -1,4 h-14 z"/>
  <!-- Dot below logo -->
  <circle cx="308" cy="99" r="1.8"/>

  <!-- GROUP HEAD - black dome/housing -->
  <path d="M168,167 h104 v12
           c0,30 -18,52 -52,52
           c-34,0 -52,-22 -52,-52 Z"/>

  <!-- PORTAFILTER ASSEMBLY -->
  <!-- Filter basket / collar -->
  <path d="M190,231 h60 l-4,16 h-52 Z
           M197,235 v7 h46 v-7 Z"/>

  <!-- Portafilter spouts (double spout) -->
  <path d="M207,247 h8 v14 l-2,5 h-4 l-2,-5 Z"/>
  <path d="M226,247 h8 v14 l-2,5 h-4 l-2,-5 Z"/>

  <!-- PORTAFILTER HANDLE - thick ergonomic shape -->
  <!-- Main handle body - uniform thickness extending left -->
  <path d="M190,222
           C170,220 130,216 95,216
           C72,216 58,222 58,230
           C58,238 72,244 95,244
           C130,244 170,242 190,242
           Z"/>
  <!-- Handle 3D highlight (white band through middle) -->
  <path d="M160,232
           C140,230 110,228 88,228
           C74,228 66,230 66,232
           C66,234 74,237 88,237
           C110,237 140,235 160,234
           Z" fill="#ffffff"/>
  <!-- Handle dark center stripe -->
  <path d="M155,232.5
           C138,231 112,229 92,229
           C80,229 73,231 73,232.5
           C73,234 80,235.5 92,235.5
           C112,235.5 138,234 155,233
           Z"/>
  <!-- Rancilio "R" logo circle on handle end -->
  <circle cx="66" cy="230" r="14"/>
  <circle cx="66" cy="230" r="10" fill="#ffffff"/>
  <!-- Stylized R letter -->
  <path d="M62,224 h5 c3.5,0 5.5,2 5.5,4.5 c0,2 -1.5,3.5 -3.5,4 l4,4.5 h-3.5 l-3.5,-4.2 h-1 v4.2 h-3 Z
           M65,226.5 v3.5 h2 c1.5,0 2.5,-0.8 2.5,-1.8 c0,-1 -1,-1.7 -2.5,-1.7 Z"/>

  <!-- STEAM WAND -->
  <!-- Connection bracket on machine body -->
  <path d="M352,190 h14 v16 h-14 Z
           M355,193 v10 h8 v-10 Z"/>
  <!-- Wand pivot joint -->
  <circle cx="372" cy="212" r="7"/>
  <circle cx="372" cy="212" r="4" fill="#ffffff"/>
  <circle cx="372" cy="212" r="3"/>
  <!-- Rubber boot/sleeve -->
  <path d="M365,219 h14 l-2,24 h-10 Z"/>
  <!-- Chrome wand tube -->
  <rect x="369" y="243" width="4" height="160"/>
  <!-- Wand tip (slightly wider) -->
  <path d="M367,403 h8 v14 h-8 Z
           M369,406 v8 h4 v-8 Z"/>

  <!-- ESPRESSO CUP - classic demitasse, positioned above drip tray -->
  <!-- Cup body - slightly tapered, wider top -->
  <path d="M188,405 h64 l-4,48 h-56 Z
           M195,411 v36 h50 v-36 Z"/>
  <!-- Cup handle (right side, small D-shape) -->
  <path d="M252,414
           c10,0 15,8 15,16
           c0,8 -5,15 -15,15
           v-6
           c6,0 9,-4 9,-9
           c0,-5 -3,-10 -9,-10 Z"/>

  <!-- DRIP TRAY -->
  <!-- Tray lip/rim -->
  <rect x="72" y="458" width="298" height="5"/>
  <!-- Tray body (outer CW, inner CCW) -->
  <path d="M75,463 h290 v46 h-290 Z
           M83,469 v34 h274 v-34 Z"/>

  <!-- Drip tray perforated grid (right portion, 4 rows) -->
  <!-- Row 1 -->
  <circle cx="250" cy="475" r="2.2"/>
  <circle cx="261" cy="475" r="2.2"/>
  <circle cx="272" cy="475" r="2.2"/>
  <circle cx="283" cy="475" r="2.2"/>
  <circle cx="294" cy="475" r="2.2"/>
  <circle cx="305" cy="475" r="2.2"/>
  <circle cx="316" cy="475" r="2.2"/>
  <circle cx="327" cy="475" r="2.2"/>
  <circle cx="338" cy="475" r="2.2"/>
  <circle cx="349" cy="475" r="2.2"/>
  <!-- Row 2 (offset) -->
  <circle cx="255" cy="483" r="2.2"/>
  <circle cx="266" cy="483" r="2.2"/>
  <circle cx="277" cy="483" r="2.2"/>
  <circle cx="288" cy="483" r="2.2"/>
  <circle cx="299" cy="483" r="2.2"/>
  <circle cx="310" cy="483" r="2.2"/>
  <circle cx="321" cy="483" r="2.2"/>
  <circle cx="332" cy="483" r="2.2"/>
  <circle cx="343" cy="483" r="2.2"/>
  <!-- Row 3 -->
  <circle cx="250" cy="491" r="2.2"/>
  <circle cx="261" cy="491" r="2.2"/>
  <circle cx="272" cy="491" r="2.2"/>
  <circle cx="283" cy="491" r="2.2"/>
  <circle cx="294" cy="491" r="2.2"/>
  <circle cx="305" cy="491" r="2.2"/>
  <circle cx="316" cy="491" r="2.2"/>
  <circle cx="327" cy="491" r="2.2"/>
  <circle cx="338" cy="491" r="2.2"/>
  <circle cx="349" cy="491" r="2.2"/>
  <!-- Row 4 (offset) -->
  <circle cx="255" cy="499" r="2.2"/>
  <circle cx="266" cy="499" r="2.2"/>
  <circle cx="277" cy="499" r="2.2"/>
  <circle cx="288" cy="499" r="2.2"/>
  <circle cx="299" cy="499" r="2.2"/>
  <circle cx="310" cy="499" r="2.2"/>
  <circle cx="321" cy="499" r="2.2"/>
  <circle cx="332" cy="499" r="2.2"/>
  <circle cx="343" cy="499" r="2.2"/>

  <!-- MACHINE BASE -->
  <rect x="68" y="515" width="304" height="12" rx="3"/>

  <!-- Mounting screws on right panel -->
  <circle cx="348" cy="190" r="3.5"/>
  <circle cx="348" cy="190" r="1.5" fill="#ffffff"/>
  <circle cx="348" cy="438" r="3.5"/>
  <circle cx="348" cy="438" r="1.5" fill="#ffffff"/>
</g>
</svg>
